<?xml version="1.0" encoding="UTF-8"?>
<svg id="Layer_2" data-name="Layer 2" xmlns="http://www.w3.org/2000/svg" viewBox="0 0 1111.92 212.32">
  <defs>
    <style>
      .cls-1 {
        fill: #86f1ff;
        stroke-width: 0px;
      }
    </style>
  </defs>
  <g id="Layer_1-2" data-name="Layer 1">
    <g>
      <path class="cls-1" d="M266.99,123.2c-8.55,26.14-32.08,42.54-62.97,42.54-44.2,0-67.49-32.32-67.49-68.68s22.81-68.68,67.02-68.68c40.16,0,65.83,30.42,65.83,64.4,0,4.28-.71,8.55-1.19,13.07h-94.34c3.33,15.21,14.5,28.99,33.98,28.99,9.74,0,19.72-3.33,24.48-11.64h34.7ZM231.59,78.05c-3.56-10.46-11.64-18.77-25.9-18.77s-24,8.32-28.76,18.77h54.66Z"/>
      <path class="cls-1" d="M522.81,32.19l27.33,83.65,27.33-83.65h36.36l-47.53,145.67c-7.13,21.39-10.22,34.46-40.87,34.46h-26.62v-34.55h14.5c11.64,0,18.54,1.26,18.54-6.32l-45.63-139.26h36.6Z"/>
      <path class="cls-1" d="M792.04,96.59c0-36.36,19.72-68.68,57.98-68.68,17.59,0,31.61,6.65,41.59,17.59V0h35.88v161.94h-35.88v-14.02c-9.98,10.93-24,17.82-41.59,17.82-38.26,0-57.98-32.79-57.98-69.15ZM829.11,96.59c0,16.87,8.08,38.26,30.42,38.26s30.42-21.39,30.42-38.26-7.6-37.31-30.42-37.31-30.42,20.91-30.42,37.31Z"/>
      <path class="cls-1" d="M1111.92,124.38h-10.04v-53.8h-36.56v53.8h-6.77s-29.49,0-29.49,0c-9.86,0-16.51-6.65-16.51-16.51V.8h-36.08v113.08c0,28.73,14.64,48.02,43.37,48.02h45.48v32.16h36.56v-32.16h10.04v-37.52Z"/>
      <path class="cls-1" d="M432.02,27.85c-19.06,0-34.69,11.82-39.64,29.35l-12.39,43.45-12.39-43.45c-4.96-17.53-20.58-29.35-39.64-29.35-27.06,0-44.98,17.92-44.98,44.98v89.11h36.21v-93.89c0-4.63,2.79-7.86,7.23-8.47,1.03-.08,6.46-.09,8.99,8.72l26.85,93.64h35.45l26.81-93.51c2.27-7.92,6.95-8.8,8.63-8.85,0,0,.47,0,.87.07,4.17.76,6.76,3.93,6.76,8.4v93.89h36.21v-89.11c0-26.87-18.11-44.98-44.98-44.98Z"/>
      <path class="cls-1" d="M96.14,103.41l4.85-3.46c10.56-7.54,17.6-21.29,17.6-34.87,0-24.47-16.43-37.23-40.9-37.23H0v28.34h80.54c5.19,0,8.71,5.15,8.71,10.51,0,3.19-1.67,6.36-4.18,8.38l-7.95,6.01c-.36-.32-.71-.65-1.07-.97-7.67-6.45-17.84-10.43-27.54-10.43-25.14,0-45.9,16.27-45.9,40.91v49.83h36.18l.25-52.69c0-5.19,1.21-8.72,6.4-8.72,1.45,0,2.95.36,4.35.97.72.38,2.88,1.73,6.39,5.69l13.46,15.17,35.56,40.1h38.93l-48-57.55Z"/>
      <g>
        <path class="cls-1" d="M740.2,94.94l-33.44-46.84c-8.64-12.09-24.38-20.16-39.93-20.16-28.03,0-46.84,18.81-46.84,46.84v87.16h36.47v-90.43c0-5.95,4.03-9.98,10.17-9.98,3.65,0,7.29,1.92,9.6,4.8l21.64,28.61h42.32Z"/>
        <path class="cls-1" d="M742.46,32.18v90.39c0,5.95-4.03,9.98-9.98,9.98-3.65,0-7.68-1.92-9.79-4.8l-21.62-28.59h-42.32l33.42,46.82c8.64,12.09,24.38,20.16,39.16,20.16,28.79,0,47.61-18.62,47.61-46.84V32.18h-36.47Z"/>
      </g>
    </g>
  </g>
</svg>